<?xml version="1.0" encoding="UTF-8"?>
<svg id="_レイヤー_2" data-name="レイヤー 2" xmlns="http://www.w3.org/2000/svg" viewBox="0 0 28.76 5.42">
  <defs>
    <style>
      .cls-1 {
        fill: #000000;
        font-weight: 900;
      }

      .cls-2 {
        fill: #ffd600;
      }

      .cls-3 {
        fill: #d0ae00;
      }

      .cls-4 {
        fill: #b29000;
      }
    </style>
  </defs>
  <g id="image">
    <g>
      <g>
        <polygon class="cls-3" points=".53 4.42 0 4.12 0 1.37 .53 1.68 .53 4.42"/>
        <g>
          <polygon class="cls-3" points="1.4 4.92 .87 4.62 .87 1.87 1.4 2.18 1.4 4.92"/>
          <polygon class="cls-3" points="2.26 5.42 1.73 5.11 1.73 2.37 2.26 2.68 2.26 5.42"/>
          <polygon class="cls-2" points="4.61 1.29 4.61 1.29 4.09 .99 4.09 .99 3.75 .8 3.75 .8 3.23 .49 3.23 .49 2.9 .3 2.9 .3 2.38 0 2.38 0 2.38 0 1.88 .29 1.88 .29 0 1.37 .53 1.68 2.41 .59 2.75 .78 .87 1.87 1.4 2.18 3.27 1.08 3.61 1.27 1.73 2.37 2.26 2.68 4.54 1.34 4.61 1.29 4.61 1.29"/>
          <path class="cls-4" d="m4.22,1.86l-1.67.98v2.55l.53-.31v-.79l1.67-.94v-1.8l-.53.32Zm0,1.19l-1.14.68v-.59l1.14-.67v.58Z"/>
        </g>
      </g>
      <g>
        <path class="cls-1" d="m9.33,4.2l-.08-1.67-.72,1.67h-.37l-.72-1.66-.07,1.66h-.43l.13-2.53h.41l.87,1.96.86-1.96h.41l.13,2.53h-.43Z"/>
        <path class="cls-1" d="m10.32,4.2V1.67h1.77v.38h-1.34v.66h1.23v.39h-1.23v.73h1.34v.38h-1.77Z"/>
        <path class="cls-1" d="m13.88,2.04v2.15h-.43v-2.15h-.76v-.38h1.97v.38h-.78Z"/>
        <path class="cls-1" d="m16.86,4.2l-.35-.81h-.93l-.35.81h-.49l1.12-2.53h.4l1.09,2.53h-.49Zm-.82-1.98l-.33.8h.66l-.33-.8Z"/>
        <path class="cls-1" d="m19.48,3.16h-.34l-.16-.38h.4c.4,0,.58-.09.58-.39,0-.26-.18-.35-.49-.35h-.53v2.15h-.43V1.67h.95c.62,0,.94.28.94.74,0,.52-.38.76-.9.76Z"/>
        <path class="cls-1" d="m22.27,4.2l-.96-1.47h.34c.4,0,.58-.07.58-.37,0-.24-.2-.32-.51-.32h-.47v2.15h-.43V1.67h.9c.63,0,.94.23.94.7s-.27.64-.67.67l.8,1.16h-.52Z"/>
        <path class="cls-1" d="m23.2,4.2V1.67h.43v2.53h-.43Z"/>
        <path class="cls-1" d="m26,4.2l-1.29-1.81v1.81h-.43V1.67h.4l1.29,1.81v-1.81h.44v2.53h-.41Z"/>
        <path class="cls-1" d="m27.98,2.04v2.15h-.43v-2.15h-.76v-.38h1.97v.38h-.78Z"/>
      </g>
    </g>
  </g>
</svg>